<?xml version="1.0" standalone="no"?>
<!DOCTYPE svg PUBLIC "-//W3C//DTD SVG 20010904//EN"
 "http://www.w3.org/TR/2001/REC-SVG-20010904/DTD/svg10.dtd">
<svg version="1.0" xmlns="http://www.w3.org/2000/svg"
 width="500.000000pt" height="500.000000pt" viewBox="0 0 500.000000 500.000000"
 preserveAspectRatio="xMidYMid meet">
<metadata>
Created by potrace 1.14, written by Peter Selinger 2001-2017
</metadata>
<g transform="translate(0.000000,500.000000) scale(0.100000,-0.100000)"
fill="#000000" stroke="none">
<path d="M2427 4474 c-1 -1 -45 -4 -97 -8 -52 -3 -108 -9 -125 -12 -16 -3 -63
-12 -102 -19 -183 -35 -404 -115 -578 -210 -88 -48 -268 -171 -330 -226 -101
-88 -236 -229 -295 -308 -14 -18 -35 -45 -46 -60 -74 -92 -208 -348 -262 -501
-34 -96 -78 -269 -88 -345 -3 -27 -8 -53 -10 -56 -6 -10 -17 -182 -17 -260 0
-75 11 -251 17 -286 2 -10 7 -40 10 -68 13 -91 73 -309 115 -415 181 -456 526
-834 966 -1060 94 -48 203 -93 162 -67 -192 121 -310 209 -427 319 -32 29
-156 170 -196 223 -146 192 -255 463 -291 726 -15 111 -8 415 13 510 2 13 7
38 9 54 9 61 57 230 92 324 132 355 325 645 628 946 167 167 249 229 440 335
73 41 345 148 382 150 3 0 -126 -370 -133 -381 -10 -17 14 -9 73 24 253 142
548 207 791 173 l52 -8 -59 -38 c-193 -125 -301 -328 -288 -541 10 -166 60
-306 161 -458 58 -87 151 -189 231 -254 99 -81 264 -169 406 -218 112 -38 119
-43 119 -79 0 -64 -111 -209 -190 -250 -38 -19 -153 -53 -240 -69 -427 -82
-923 55 -1355 373 -38 28 -82 63 -98 78 -36 33 -45 28 -110 -55 -87 -112 -136
-219 -161 -357 -10 -56 -12 -122 -7 -257 2 -53 16 -38 19 19 4 82 39 215 78
296 39 80 48 81 60 7 18 -111 71 -269 129 -385 54 -107 101 -177 204 -303 33
-40 185 -168 254 -213 107 -71 294 -152 409 -179 151 -34 184 -38 343 -39 247
-1 350 15 560 92 333 121 611 371 750 675 98 216 136 410 130 662 -5 188 -9
221 -40 380 -115 578 -501 1097 -1020 1375 -44 24 -84 46 -90 50 -55 39 -413
151 -526 165 -30 4 -56 8 -59 10 -13 8 -355 26 -363 19z"/>
</g>
</svg>
